<?xml version="1.0" encoding="UTF-8" standalone="no"?>
<svg
   xmlns:dc="http://purl.org/dc/elements/1.1/"
   xmlns:cc="http://creativecommons.org/ns#"
   xmlns:rdf="http://www.w3.org/1999/02/22-rdf-syntax-ns#"
   xmlns:svg="http://www.w3.org/2000/svg"
   xmlns="http://www.w3.org/2000/svg"
   xmlns:sodipodi="http://sodipodi.sourceforge.net/DTD/sodipodi-0.dtd"
   xmlns:inkscape="http://www.inkscape.org/namespaces/inkscape"
   id="Layer_1"
   viewBox="0 0 800 272.1"
   version="1.1"
   sodipodi:docname="discord.svg"
   inkscape:version="0.92.3 (2405546, 2018-03-11)">
  <metadata
     id="metadata13">
    <rdf:RDF>
      <cc:Work
         rdf:about="">
        <dc:format>image/svg+xml</dc:format>
        <dc:type
           rdf:resource="http://purl.org/dc/dcmitype/StillImage" />
      </cc:Work>
    </rdf:RDF>
  </metadata>
  <defs
     id="defs11" />
  <sodipodi:namedview
     pagecolor="#ffffff"
     bordercolor="#666666"
     borderopacity="1"
     objecttolerance="10"
     gridtolerance="10"
     guidetolerance="10"
     inkscape:pageopacity="0"
     inkscape:pageshadow="2"
     inkscape:window-width="1366"
     inkscape:window-height="745"
     id="namedview9"
     showgrid="false"
     inkscape:zoom="0.71"
     inkscape:cx="461.94632"
     inkscape:cy="120.53095"
     inkscape:window-x="-8"
     inkscape:window-y="-8"
     inkscape:window-maximized="1"
     inkscape:current-layer="Layer_1" />
  <style
     id="style2">.st0{fill:#FFFFFF;}</style>
  <path
     class="st0"
     d="m 117.86677,118.55199 c -6.25321,0 -11.18995,5.37556 -11.18995,12.06759 0,6.69203 5.04645,12.0676 11.18995,12.0676 6.25321,0 11.18996,-5.37557 11.18996,-12.0676 0,-6.69203 -5.04645,-12.06759 -11.18996,-12.06759 z m -40.042475,0 c -6.253209,0 -11.189953,5.37556 -11.189953,12.06759 0,6.69203 5.046449,12.0676 11.189953,12.0676 6.253209,0 11.189953,-5.37557 11.189953,-12.0676 0.109705,-6.69203 -4.936744,-12.06759 -11.189953,-12.06759 z"
     id="path4"
     inkscape:connector-curvature="0"
     style="fill:#ffffff;stroke-width:1.09705424" />
  <path
     class="st0"
     d="M 171.18361,27.277075 H 24.178344 c -12.396713,0 -22.4896116,10.092899 -22.4896116,22.489611 V 196.77195 c 0,12.39671 10.0928986,22.48961 22.4896116,22.48961 H 148.58429 l -5.81439,-20.07609 14.0423,12.94524 13.27435,12.1773 23.69637,20.51491 V 49.766686 C 193.67322,37.369974 183.58032,27.277075 171.18361,27.277075 Z M 128.83732,169.3456 c 0,0 -3.9494,-4.71734 -7.24056,-8.77644 14.37141,-4.0591 19.85668,-12.94524 19.85668,-12.94524 -4.49792,2.96205 -8.77643,5.04645 -12.61612,6.47262 -5.48528,2.30382 -10.75114,3.72999 -15.90729,4.71733 -10.53172,1.9747 -20.185798,1.42618 -28.413705,-0.1097 -6.253209,-1.20676 -11.628774,-2.85234 -16.126697,-4.71733 -2.523224,-0.98735 -5.26586,-2.19411 -8.008495,-3.72999 -0.329117,-0.21941 -0.658233,-0.32911 -0.987349,-0.54853 -0.219411,-0.1097 -0.329116,-0.21941 -0.438822,-0.21941 -1.974697,-1.09705 -3.071752,-1.86499 -3.071752,-1.86499 0,0 5.265861,8.66673 19.198449,12.83554 -3.291163,4.1688 -7.350263,8.99584 -7.350263,8.99584 -24.244898,-0.76794 -33.460154,-16.56552 -33.460154,-16.56552 0,-34.99603 15.797581,-63.409731 15.797581,-63.409731 15.797581,-11.73848 30.717518,-11.409364 30.717518,-11.409364 l 1.097054,1.316465 c -19.746976,5.594976 -28.74282,14.261705 -28.74282,14.261705 0,0 2.413519,-1.316465 6.47262,-3.071752 11.73848,-5.156155 21.063441,-6.47262 24.90313,-6.911442 0.658233,-0.109705 1.20676,-0.21941 1.864992,-0.21941 6.692031,-0.877644 14.261703,-1.097055 22.160493,-0.219411 10.42202,1.206759 21.61197,4.278511 33.02133,10.422015 0,0 -8.66672,-8.227907 -27.31665,-13.822883 l 1.53588,-1.755287 c 0,0 15.02964,-0.329116 30.71752,11.409364 0,0 15.79758,28.413701 15.79758,63.409731 0,-0.1097 -9.21526,15.68788 -33.46015,16.45582 z M 294.4925,74.230995 h -36.4222 v 40.920125 l 24.2449,21.83138 V 97.269134 h 12.94524 c 8.22791,0 12.28701,3.949396 12.28701,10.312306 v 30.3884 c 0,6.36292 -3.83969,10.64143 -12.28701,10.64143 H 257.9606 v 23.14784 h 36.4222 c 19.52756,0.10971 37.84837,-9.65407 37.84837,-32.03398 v -32.69221 c 0.1097,-22.818731 -18.2111,-32.801925 -37.73867,-32.801925 z m 190.88743,65.494135 v -33.56986 c 0,-12.067594 21.72168,-14.810229 28.304,-2.74263 l 20.07609,-8.118204 C 525.86123,77.96098 511.48982,72.91453 499.53193,72.91453 c -19.52756,0 -38.83572,11.299659 -38.83572,33.24074 v 33.56986 c 0,22.1605 19.30816,33.24074 38.3969,33.24074 12.28701,0 26.98754,-6.03379 35.10574,-21.83137 l -21.50227,-9.87349 c -5.26586,13.49376 -27.31665,10.2026 -27.31665,-1.53588 z M 419.00815,110.7629 c -7.56967,-1.64558 -12.61612,-4.38822 -12.94524,-9.10555 0.43883,-11.299658 17.88199,-11.73848 28.08459,-0.87764 l 16.1267,-12.396715 c -10.0929,-12.287008 -21.50226,-15.57817 -33.24074,-15.57817 -17.88199,0 -35.21544,10.092898 -35.21544,29.181645 0,18.54021 14.2617,28.52341 29.94958,30.93693 8.00849,1.09705 16.89463,4.27851 16.67522,9.76378 -0.65823,10.42201 -22.16049,9.87349 -31.92428,-1.9747 l -15.57817,14.59082 c 9.10555,11.73848 21.50227,17.66257 33.13104,17.66257 17.88198,0 37.73867,-10.31231 38.5066,-29.18164 1.09706,-23.80607 -16.2364,-29.83987 -33.56986,-33.02133 z m -73.50263,60.88651 h 24.57402 V 74.230995 H 345.50552 Z M 759.8629,74.230995 h -36.4222 v 40.920125 l 24.2449,21.83138 V 97.269134 h 12.94524 c 8.2279,0 12.287,3.949396 12.287,10.312306 v 30.3884 c 0,6.36292 -3.83969,10.64143 -12.287,10.64143 h -37.29985 v 23.14784 h 36.53191 c 19.52756,0.10971 37.84837,-9.65407 37.84837,-32.03398 v -32.69221 c 0,-22.818731 -18.32081,-32.801925 -37.84837,-32.801925 z M 581.15277,72.91453 c -20.1858,0 -40.26189,10.970542 -40.26189,33.46015 v 33.24075 c 0,22.2702 20.18579,33.46015 40.4813,33.46015 20.18579,0 40.26189,-11.18995 40.26189,-33.46015 v -33.24075 c 0,-22.379902 -20.29551,-33.46015 -40.4813,-33.46015 z m 15.79758,66.7009 c 0,7.02114 -7.89879,10.64142 -15.68788,10.64142 -7.89879,0 -15.79758,-3.40087 -15.79758,-10.64142 v -33.24075 c 0,-7.130849 7.67938,-10.970539 15.35876,-10.970539 8.0085,0 16.1267,3.400869 16.1267,10.970539 z M 709.83723,106.37468 C 709.2887,83.555956 693.71053,74.340701 673.63444,74.340701 h -38.94543 v 97.418409 h 24.90313 v -30.93692 h 4.38822 l 22.59932,30.93692 h 30.71751 l -26.54871,-33.46015 c 11.73848,-3.72998 19.08875,-13.93259 19.08875,-31.92428 z m -35.76397,13.16465 H 659.59214 V 97.269134 h 14.48112 c 15.46846,0 15.46846,22.270196 0,22.270196 z"
     id="path6"
     inkscape:connector-curvature="0"
     style="fill:#ffffff;stroke-width:1.09705424" />
</svg>
