<?xml version="1.0" encoding="UTF-8" standalone="no"?>
<svg
   xmlns:dc="http://purl.org/dc/elements/1.1/"
   xmlns:cc="http://creativecommons.org/ns#"
   xmlns:rdf="http://www.w3.org/1999/02/22-rdf-syntax-ns#"
   xmlns:svg="http://www.w3.org/2000/svg"
   xmlns="http://www.w3.org/2000/svg"
   xmlns:sodipodi="http://sodipodi.sourceforge.net/DTD/sodipodi-0.dtd"
   xmlns:inkscape="http://www.inkscape.org/namespaces/inkscape"
   id="Layer_1"
   viewBox="0 0 245 240"
   version="1.1"
   sodipodi:docname="discord-mini.svg"
   inkscape:version="0.92.3 (2405546, 2018-03-11)">
  <metadata
     id="metadata131">
    <rdf:RDF>
      <cc:Work
         rdf:about="">
        <dc:format>image/svg+xml</dc:format>
        <dc:type
           rdf:resource="http://purl.org/dc/dcmitype/StillImage" />
      </cc:Work>
    </rdf:RDF>
  </metadata>
  <defs
     id="defs129" />
  <sodipodi:namedview
     pagecolor="#ffffff"
     bordercolor="#666666"
     borderopacity="1"
     objecttolerance="10"
     gridtolerance="10"
     guidetolerance="10"
     inkscape:pageopacity="0"
     inkscape:pageshadow="2"
     inkscape:window-width="640"
     inkscape:window-height="480"
     id="namedview127"
     showgrid="false"
     inkscape:zoom="0.98333333"
     inkscape:cx="122.5"
     inkscape:cy="120"
     inkscape:window-x="0"
     inkscape:window-y="0"
     inkscape:window-maximized="0"
     inkscape:current-layer="Layer_1" />
  <style
     id="style120">.st0{fill:#7289DA;}</style>
  <path
     class="st0"
     d="M104.4 103.9c-5.7 0-10.2 5-10.2 11.1s4.6 11.1 10.2 11.1c5.7 0 10.2-5 10.2-11.1.1-6.1-4.5-11.1-10.2-11.1zM140.9 103.9c-5.7 0-10.2 5-10.2 11.1s4.6 11.1 10.2 11.1c5.7 0 10.2-5 10.2-11.1s-4.5-11.1-10.2-11.1z"
     id="path122" />
  <path
     class="st0"
     d="M 201.76441,1.6949153 H 43.235593 c -13.368474,0 -24.252542,10.8840677 -24.252542,24.3708477 V 186.01424 c 0,13.48678 10.884068,24.37084 24.252542,24.37084 H 177.39356 l -6.27017,-21.88644 15.14305,14.07831 14.31492,13.25017 25.43559,22.47796 V 26.065763 c 0,-13.48678 -10.88407,-24.3708477 -24.25254,-24.3708477 z M 156.09864,156.20136 c 0,0 -4.25898,-5.08712 -7.80813,-9.58272 15.49796,-4.37728 21.41322,-14.0783 21.41322,-14.0783 -4.85051,3.19424 -9.46441,5.44203 -13.60509,6.98 -5.91525,2.48441 -11.59389,4.14068 -17.15423,5.08712 -11.35729,2.12949 -21.76814,1.53796 -30.64102,-0.11831 -6.74339,-1.30135 -12.540339,-3.19423 -17.390848,-5.08712 -2.721017,-1.06474 -5.678644,-2.3661 -8.636271,-4.02237 -0.354915,-0.23661 -0.70983,-0.35491 -1.064746,-0.59152 -0.23661,-0.11831 -0.354915,-0.23661 -0.47322,-0.35492 -2.129491,-1.18305 -3.312542,-2.01119 -3.312542,-2.01119 0,0 5.678644,9.46441 20.70339,13.96 -3.549153,4.4956 -7.926441,9.81933 -7.926441,9.81933 -26.145424,-0.82814 -36.083051,-17.98238 -36.083051,-17.98238 0,-38.09423 17.035932,-68.971861 17.035932,-68.971861 17.035932,-12.77695 33.243727,-12.422034 33.243727,-12.422034 l 1.18305,1.419661 C 84.287458,64.39661 74.468136,73.742712 74.468136,73.742712 c 0,0 2.602711,-1.419661 6.98,-3.430848 12.658644,-5.560339 22.714574,-7.098305 26.855254,-7.45322 0.70983,-0.118305 1.30136,-0.23661 2.01119,-0.23661 7.21661,-0.946441 15.37966,-1.183051 23.89762,-0.23661 11.23899,1.301356 23.30611,4.613898 35.60983,11.357288 0,0 -9.3461,-8.872881 -29.45796,-15.024746 l 1.65627,-1.892881 c 0,0 16.2078,-0.354916 33.24373,12.422034 0,0 17.03593,30.877631 17.03593,68.971861 0,0 -10.05593,17.15424 -36.20136,17.98238 z"
     id="path124"
     inkscape:connector-curvature="0"
     style="fill:#7289da;stroke-width:1.18305087" />
</svg>
